<?xml version="1.0" encoding="UTF-8"?>
<svg id="Layer_2" data-name="Layer 2" xmlns="http://www.w3.org/2000/svg" viewBox="0 0 166.37 189.39">
  <defs>
    <style>
      .cls-1 {
        fill: #fff;
      }

      .cls-2 {
        fill: #ffcb00;
      }

      .cls-3 {
        fill: #fcc200;
      }

      .cls-4 {
        fill: #009ee2;
      }

      .cls-5 {
        fill: #d10a11;
      }

      .cls-6 {
        fill: #13a438;
      }
    </style>
  </defs>
  <g id="CLUB">
    <g>
      <g>
        <path class="cls-1" d="M83.89,186.89c-27.8,0-54.64-11.69-73.63-32.07-.86-.92-.9-2.33-.09-3.3l15.94-19.18c.47-.57,1.17-.9,1.9-.9h.02c.73,0,1.42,.32,1.9,.87,2.53,2.96,5.33,5.71,8.34,8.23v-63.78c-.41,.07-.83,.11-1.23,.11-.04,0-.09,0-.13,0-3.47,3.42-10.83,6.81-17.07,6.81-.29,0-.58,0-.87-.02l-.3-.02c-.9-.05-1.7-.57-2.1-1.38L2.77,54.75c-.41-.81-.34-1.77,.17-2.52,.47-.69,1.25-1.1,2.07-1.1,.07,0,.14,0,.21,0l.92,.08c.86,.07,1.68,.11,2.44,.11,6.42,0,8.44-2.54,11.23-6.06,.65-.82,1.4-1.76,2.23-2.68,3.9-4.33,8.48-6.93,12.26-6.93,.15,0,.29,0,.43,.01,2.02,.1,3.71,.94,4.75,2.37,.3,.41,.57,.84,.8,1.28l2.81,5.02c3.12-2.26,6.93-4.3,11.22-4.3,1.51,0,3.07,.22,4.65,.65-.06-.68-.08-1.35-.08-2.03,0-1.19,.09-2.38,.26-3.57-5.9-3.55-9.13-8.23-9.13-13.32,0-10.8,14.69-19.26,33.45-19.26s33.44,8.46,33.44,19.26c0,5.18-3.32,9.92-9.4,13.49,.16,1.13,.24,2.27,.24,3.41,0,.65-.03,1.3-.08,1.96,1.49-.38,2.95-.57,4.37-.57,4.3,0,8.12,2.04,11.23,4.3l2.83-5.08c.2-.39,.47-.82,.77-1.22,1.06-1.43,2.75-2.27,4.77-2.37,.14,0,.3-.01,.47-.01,3.8,0,8.26,2.53,12.24,6.94,.82,.91,1.56,1.84,2.21,2.67,2.9,3.66,4.81,6.07,11.22,6.07,.76,0,1.59-.04,2.45-.11l.92-.08c.07,0,.14,0,.21,0,.83,0,1.6,.41,2.07,1.1,.51,.75,.57,1.71,.16,2.52l-13.8,27.52c-.4,.8-1.21,1.33-2.1,1.38l-.3,.02c-.29,.01-.58,.02-.87,.02-6.01,0-13.08-3.16-16.69-6.45v62.8c3.02-2.54,5.69-5.2,8.2-8.19,.48-.56,1.18-.89,1.91-.89h0c.74,0,1.44,.33,1.92,.9l16.02,19.32c.8,.96,.76,2.37-.09,3.29-18.98,20.6-45.92,32.41-73.92,32.41Z"/>
        <path class="cls-1" d="M83.47,5c17.09,0,30.94,7.51,30.94,16.76,0,4.79-3.72,9.11-9.68,12.16,.33,1.52,.52,3.11,.52,4.73,0,2-.27,3.95-.78,5.79,2.23-1.07,4.84-1.91,7.57-1.91,4.4,0,8.38,2.58,12,5.56l4.25-7.62h0c.17-.32,.37-.64,.6-.96,.6-.81,1.62-1.29,2.88-1.35,.11,0,.23,0,.34,0,3.05,0,6.93,2.28,10.38,6.11,.75,.84,1.44,1.7,2.1,2.54,2.96,3.74,5.56,7.02,13.18,7.02,.83,0,1.71-.04,2.66-.12l.92-.08h0s0,0,0,0l-13.8,27.52-.3,.02c-.24,.01-.49,.02-.74,.02-6.29,0-13.85-3.98-16.1-6.96-.38,.1-.75,.15-1.13,.15-.65,0-1.31-.15-1.97-.41v71.2c4.75-3.48,8.83-7.21,12.61-11.71l16.02,19.32c-17.9,19.43-43.57,31.61-72.08,31.61s-53.89-12.05-71.8-31.27l15.94-19.18c3.78,4.42,8.02,8.3,12.73,11.72v-.49h0s0-72.14,0-72.14c-1.28,.82-2.51,1.34-3.73,1.34-.37,0-.74-.05-1.12-.15-2.23,2.98-9.78,6.96-16.09,6.96-.25,0-.5,0-.74-.02l-.3-.02L5,53.64h0s.92,.08,.92,.08c.94,.08,1.82,.12,2.65,.12,7.6,0,10.22-3.28,13.19-7.01,.67-.84,1.36-1.71,2.13-2.56,3.46-3.85,7.38-6.11,10.41-6.11,.1,0,.2,0,.3,0,1.25,.06,2.27,.54,2.87,1.35,.23,.32,.43,.64,.6,.96h0s4.27,7.62,4.27,7.62c3.61-2.98,7.59-5.56,11.98-5.56,2.86,0,5.59,.92,7.89,2.07-.53-1.89-.82-3.89-.82-5.95,0-1.67,.19-3.3,.55-4.87-5.8-3.05-9.41-7.31-9.41-12.02,0-9.26,13.87-16.76,30.95-16.76m0-5c-9.08,0-17.7,1.96-24.26,5.51-7.54,4.08-11.69,9.85-11.69,16.25,0,5.58,3.15,10.67,8.96,14.59-.04,.43-.06,.87-.08,1.3-.7-.08-1.4-.12-2.09-.12-3.91,0-7.38,1.4-10.36,3.22l-1.52-2.72s0-.02-.01-.02c-.27-.5-.58-.99-.92-1.46-1.48-2.01-3.9-3.25-6.65-3.39-.18,0-.36-.01-.55-.01-4.54,0-9.69,2.83-14.13,7.77-.86,.95-1.64,1.93-2.32,2.79-2.71,3.41-4.07,5.12-9.27,5.12-.69,0-1.44-.03-2.22-.1l-.92-.08c-.14-.01-.28-.02-.42-.02-1.66,0-3.23,.83-4.16,2.22-1,1.5-1.12,3.42-.31,5.02l13.78,27.51c.81,1.61,2.41,2.66,4.2,2.75l.3,.02c.34,.02,.67,.03,1.01,.03,5.56,0,11.69-2.35,15.94-5.22v53.95c-1.37-1.34-2.67-2.75-3.94-4.23-.95-1.11-2.34-1.75-3.8-1.75h-.04c-1.47,.01-2.87,.67-3.81,1.8l-15.94,19.18c-1.61,1.94-1.53,4.76,.19,6.6,9.55,10.25,20.86,18.33,33.61,24,13.21,5.88,27.29,8.86,41.85,8.86s28.8-3.01,42.07-8.95c12.81-5.74,24.15-13.9,33.69-24.27,1.7-1.84,1.77-4.65,.17-6.58l-16.02-19.32c-.95-1.14-2.35-1.8-3.83-1.81h-.02c-1.48,0-2.88,.65-3.83,1.78-1.22,1.45-2.47,2.81-3.79,4.13v-52.32c4.09,2.35,9.36,4.13,14.19,4.13,.33,0,.67,0,1-.03l.31-.02c1.79-.1,3.4-1.15,4.2-2.75l13.8-27.52c.81-1.62,.69-3.54-.33-5.04-.93-1.38-2.49-2.2-4.14-2.2-.14,0-.28,0-.42,.02l-.92,.08c-.8,.07-1.55,.1-2.24,.1-5.2,0-6.56-1.71-9.25-5.12-.68-.86-1.44-1.82-2.32-2.79-4.45-4.93-9.59-7.76-14.1-7.76-.21,0-.41,0-.61,.02-2.74,.14-5.16,1.37-6.64,3.38-.36,.49-.68,.99-.95,1.5l-1.51,2.71c-2.98-1.81-6.46-3.22-10.37-3.22-.6,0-1.2,.03-1.81,.09-.01-.36-.04-.73-.06-1.09,5.92-3.93,9.24-9.18,9.24-14.77,0-6.4-4.15-12.17-11.68-16.25-6.56-3.56-15.18-5.51-24.26-5.51h0Z"/>
      </g>
      <g>
        <path class="cls-1" d="M61.34,43.89s-1.58-4.51,0-10.44l3.54-.9-.81,11.34h-2.73Z"/>
        <path class="cls-1" d="M105.23,33.36s1.58,4.51,0,10.44l-3.54,.9,.81-11.34h2.73Z"/>
        <g>
          <g>
            <path class="cls-1" d="M19.8,81.18c-.25,0-.5,0-.74-.02l-.3-.02L4.96,53.61l.92,.08c9.69,.82,12.56-2.75,15.84-6.89,.67-.84,1.36-1.72,2.13-2.56,3.58-3.98,7.65-6.26,10.72-6.1,1.26,.06,2.27,.54,2.87,1.35,1,1.36,1.39,2.75,1.17,4.13-.49,3.12-3.92,5.57-6.95,7.74-1.9,1.36-3.87,2.77-4.01,3.76-.03,.21,.02,.38,.17,.57l.06,.1,8.4,17.87-.15,.24c-1.9,3-9.79,7.29-16.33,7.29Zm-.39-1.04c.14,0,.28,0,.42,0,6.27,0,13.44-4.1,15.27-6.58l-8.13-17.3c-.3-.4-.41-.84-.34-1.31,.21-1.42,2.07-2.76,4.44-4.45,2.86-2.05,6.1-4.36,6.53-7.06,.18-1.11-.14-2.21-.98-3.35-.41-.56-1.13-.89-2.08-.93-2.22-.1-5.93,1.35-9.9,5.76-.74,.82-1.42,1.68-2.08,2.51-3.23,4.06-6.25,7.92-15.83,7.35l12.7,25.35Z"/>
            <path class="cls-1" d="M19.8,81.83c-.26,0-.52,0-.78-.02l-.68-.04L3.87,52.88l2.07,.18c9.38,.79,12.11-2.66,15.28-6.65,.64-.81,1.37-1.72,2.15-2.59,3.71-4.13,7.94-6.49,11.23-6.31,1.45,.07,2.64,.65,3.35,1.62,1.1,1.5,1.54,3.05,1.29,4.61-.54,3.38-4.08,5.92-7.21,8.16-1.46,1.04-3.65,2.61-3.75,3.33l.14,.24,8.59,18.26-.34,.54c-2.16,3.42-10.37,7.59-16.88,7.59Zm.01-2.33h.02c5.98,0,12.52-3.75,14.51-6.02l-7.96-16.93c-.33-.43-.49-1.05-.4-1.68,.25-1.69,2.21-3.1,4.7-4.88,2.76-1.98,5.89-4.21,6.27-6.64,.15-.94-.13-1.87-.87-2.87-.37-.51-1.07-.65-1.6-.67-2.07-.1-5.58,1.32-9.39,5.55-.73,.81-1.4,1.65-2.04,2.46-3.11,3.91-6.25,7.84-15.28,7.65l12.03,24.02Z"/>
          </g>
          <g>
            <path class="cls-1" d="M30.1,57.74c-.84,0-1.65-.24-2.43-.8-.31-.21-.53-.41-.69-.65-.3-.38-.43-.84-.36-1.33,.21-1.42,2.07-2.76,4.44-4.45,3.77-2.7,8.05-5.76,6.07-9.57l.91-.49,4.79,8.55-.33,.28c-1,.84-1.97,1.71-2.92,2.55-3.51,3.12-6.65,5.91-9.48,5.91Zm8.53-14.12c-.49,3.1-4,5.61-6.97,7.74-1.9,1.36-3.87,2.77-4.01,3.76-.03,.2,.02,.38,.17,.57,.1,.15,.23,.27,.44,.4,2.78,1.96,6.42-1.29,10.63-5.04,.85-.75,1.72-1.53,2.61-2.29l-2.88-5.14Z"/>
            <path class="cls-1" d="M30.1,58.38c-1,0-1.94-.31-2.8-.91-.36-.24-.65-.51-.85-.82-.39-.49-.56-1.12-.46-1.78,.25-1.7,2.21-3.1,4.7-4.88,4.45-3.18,7.47-5.67,5.87-8.75l-.29-.56,2.03-1.1,5.36,9.57-.74,.62c-.99,.84-1.96,1.7-2.9,2.54-3.66,3.26-6.83,6.08-9.91,6.08Zm8.7-13.14c-1.21,2.66-4.24,4.83-6.76,6.63-1.46,1.05-3.65,2.61-3.75,3.33,.1,.17,.16,.23,.33,.34,2.37,1.67,5.83-1.41,9.84-4.98,.73-.65,1.47-1.31,2.23-1.96l-1.89-3.37Zm-.6-3.19s0,.04,.01,.05v-.03s-.01-.03-.01-.03Z"/>
          </g>
          <g>
            <path class="cls-1" d="M146.56,81.18c-6.52,0-14.43-4.28-16.34-7.28l-.15-.24,.12-.26,8.36-17.71c.15-.19,.2-.37,.17-.57-.14-.99-2.11-2.39-4.01-3.76-3.03-2.16-6.45-4.62-6.95-7.74-.22-1.38,.17-2.77,1.17-4.13,.6-.81,1.62-1.29,2.88-1.35,3.1-.18,7.15,2.13,10.73,6.11,.76,.84,1.44,1.7,2.11,2.54,3.28,4.15,6.12,7.73,15.85,6.91l.92-.08-13.81,27.53-.3,.02c-.24,.01-.49,.02-.74,.02Zm-15.31-7.61c1.89,2.53,9.32,6.76,15.7,6.57l12.71-25.35c-9.55,.57-12.61-3.29-15.83-7.36-.65-.83-1.33-1.68-2.06-2.49-3.28-3.63-6.86-5.77-9.65-5.77-.09,0-.17,0-.26,0-.96,.05-1.68,.37-2.1,.93-.84,1.14-1.16,2.24-.98,3.35,.43,2.69,3.67,5.01,6.53,7.06,2.36,1.69,4.23,3.03,4.44,4.45,.07,.47-.05,.91-.34,1.31l-8.15,17.3Z"/>
            <path class="cls-1" d="M146.56,81.83c-6.49,0-14.71-4.17-16.89-7.58l-.34-.54,8.75-18.49c-.11-.73-2.3-2.29-3.75-3.33-3.14-2.24-6.68-4.78-7.22-8.17-.25-1.56,.18-3.11,1.29-4.61,.72-.97,1.91-1.55,3.37-1.62,3.28-.17,7.5,2.17,11.24,6.32,.78,.86,1.5,1.77,2.13,2.58,3.31,4.17,5.9,7.47,15.29,6.67l2.07-.18-14.49,28.9-.67,.04c-.26,.01-.51,.02-.77,.02Zm-14.55-8.35c2.01,2.27,8.64,6.03,14.53,6.03h.01l12.04-24.02c-9.07,.25-12.21-3.78-15.27-7.65-.64-.81-1.31-1.66-2.04-2.46-3.14-3.48-6.57-5.56-9.17-5.56h-.22c-.53,.03-1.24,.17-1.61,.68-.73,.99-1.01,1.93-.86,2.87,.39,2.42,3.51,4.66,6.27,6.63,2.49,1.78,4.46,3.19,4.7,4.88,.09,.63-.07,1.25-.46,1.78l-7.91,16.82Z"/>
          </g>
          <g>
            <path class="cls-1" d="M136.26,57.73c-2.84,0-5.98-2.8-9.49-5.92-.94-.84-1.9-1.7-2.9-2.53l-.33-.28,4.77-8.55,.91,.49c-1.98,3.81,2.3,6.87,6.07,9.57,2.36,1.69,4.23,3.03,4.44,4.45,.07,.49-.06,.94-.38,1.36-.18,.25-.44,.46-.65,.61-.79,.55-1.6,.8-2.45,.8Zm-11.4-8.97c.89,.76,1.75,1.53,2.59,2.28,4.22,3.76,7.86,7.01,10.64,5.06,.21-.15,.35-.28,.43-.4,.16-.2,.21-.38,.18-.58-.14-.99-2.11-2.4-4.01-3.76-2.96-2.12-6.47-4.63-6.96-7.73l-2.87,5.14Z"/>
            <path class="cls-1" d="M136.26,58.38c-3.08,0-6.25-2.82-9.92-6.09-.98-.87-1.92-1.71-2.89-2.52l-.73-.62,5.34-9.57,2.03,1.09-.29,.56c-1.59,3.07,1.43,5.56,5.87,8.75,2.49,1.78,4.46,3.19,4.7,4.89,.1,.65-.08,1.29-.51,1.85-.22,.3-.53,.55-.77,.73-.88,.62-1.83,.93-2.83,.93Zm-10.58-9.77c.75,.65,1.48,1.3,2.2,1.94,4.02,3.58,7.48,6.67,9.84,5.01,.17-.13,.25-.21,.28-.25-.04-.82-2.23-2.39-3.67-3.42-2.53-1.81-5.57-3.99-6.77-6.64l-1.88,3.36Zm2.46-6.53v.03s0-.03,.01-.05v.02Z"/>
          </g>
          <g>
            <path class="cls-1" d="M83.18,75.31c-3.41,0-8.11-2.9-13.09-5.97-4.82-2.97-9.8-6.04-13.17-6.04-4.58,0-8.5,3.39-11.96,6.38-3.45,2.98-6.44,5.56-9.45,4.42l-.2-.07-8.37-17.81,.9-.51c.08,.12,.21,.24,.42,.37,2.76,1.95,6.41-1.28,10.61-5.03,4.5-4.01,9.59-8.55,15.43-8.55,5.32,0,10.21,3.18,12.65,5.07,3.12,2.49,12.71,8.37,16.23,8.37s13.01-5.81,16.23-8.37c2.45-1.9,7.34-5.08,12.65-5.08,5.85,0,10.95,4.54,15.45,8.55,4.2,3.75,7.83,6.98,10.6,5.03,.21-.16,.35-.28,.43-.4l.89,.53-8.39,17.81-.2,.07c-3.02,1.14-5.99-1.44-9.43-4.42-3.46-2.99-7.38-6.38-11.96-6.38-3.37,0-8.35,3.07-13.17,6.04-4.98,3.07-9.68,5.97-13.1,5.97Zm-26.26-13.05c3.67,0,8.77,3.15,13.71,6.2,4.64,2.86,9.43,5.81,12.55,5.81s7.91-2.96,12.55-5.82c4.94-3.05,10.04-6.19,13.71-6.19,4.97,0,9.04,3.53,12.64,6.64,3.11,2.69,5.79,5.02,8.19,4.3l7.4-15.72c-3.19,1.2-6.78-2-10.87-5.64-4.36-3.89-9.3-8.29-14.76-8.29-5,0-9.67,3.04-12.01,4.86-3.13,2.49-12.92,8.59-16.87,8.59s-13.75-6.1-16.88-8.59c-1.88-1.46-6.81-4.85-12.01-4.85s-10.38,4.4-14.74,8.28c-4.1,3.65-7.68,6.85-10.88,5.65l7.39,15.72c2.39,.73,5.1-1.61,8.21-4.3,3.6-3.11,7.67-6.63,12.64-6.63Z"/>
            <path class="cls-1" d="M83.18,75.96c-3.59,0-8.37-2.95-13.43-6.06-4.74-2.92-9.64-5.95-12.83-5.95-4.34,0-8.16,3.3-11.54,6.22-3.61,3.12-6.72,5.82-10.1,4.54l-.44-.16-8.74-18.59,1.94-1.1,.33,.49s.06,.08,.24,.2c2.37,1.67,5.82-1.4,9.83-4.97,4.58-4.08,9.77-8.71,15.86-8.71,5.51,0,10.54,3.26,13.05,5.21,3.44,2.75,12.7,8.23,15.84,8.23s12.29-5.41,15.83-8.23c2.52-1.95,7.55-5.22,13.05-5.22,6.09,0,11.29,4.63,15.87,8.71,4,3.56,7.44,6.64,9.8,4.98,.17-.13,.25-.21,.28-.25l.35-.47,1.89,1.13-8.75,18.57-.44,.17c-3.37,1.27-6.48-1.42-10.08-4.53-3.37-2.92-7.2-6.23-11.54-6.23-3.19,0-8.09,3.02-12.83,5.94-5.07,3.12-9.84,6.07-13.43,6.07Zm-26.26-14.34c3.84,0,9.03,3.19,14.04,6.28,4.58,2.82,9.29,5.73,12.22,5.73s7.65-2.91,12.21-5.72c5.02-3.09,10.2-6.29,14.05-6.29,5.21,0,9.38,3.61,13.06,6.79,2.86,2.47,5.31,4.61,7.32,4.23l6.72-14.27c-3.18,.18-6.42-2.73-10.15-6.05-4.29-3.82-9.13-8.14-14.34-8.14-4.8,0-9.34,2.96-11.61,4.72-2.64,2.1-12.86,8.72-17.26,8.72s-14.01-6.12-17.28-8.73c-1.82-1.41-6.61-4.71-11.6-4.71s-10.04,4.31-14.31,8.12c-3.75,3.34-7.03,6.28-10.17,6.06l6.71,14.27c2.01,.37,4.61-1.87,7.34-4.24,3.68-3.18,7.85-6.79,13.06-6.79Z"/>
          </g>
        </g>
        <rect x="40.74" y="144.05" width="86.21" height="22.73"/>
        <g id="Strapline_Saints_Logo" data-name="Strapline &amp;amp; Saints Logo">
          <g>
            <g>
              <path d="M127.36,144.64V60.01H40.75v85.19s0,.5,0,.5c-4.73-3.42-8.96-7.31-12.75-11.73l-15.95,19.19c17.92,19.23,43.47,31.29,71.83,31.29s54.21-12.18,72.12-31.62l-16.03-19.33c-3.79,4.5-7.87,8.23-12.62,11.72v-.56Z"/>
              <path class="cls-1" d="M83.89,184.7c-27.2,0-53.45-11.43-72.02-31.37l-.16-.17,.15-.18,16.14-19.42,.2,.23c3.62,4.23,7.75,8.06,12.28,11.38V59.75H127.62v84.93c4.71-3.5,8.58-7.12,12.16-11.37l.2-.24,.2,.24,16.18,19.5-.15,.17c-18.56,20.15-44.92,31.71-72.31,31.71ZM12.4,153.14c18.46,19.73,44.51,31.04,71.49,31.04s53.32-11.43,71.78-31.37l-15.69-18.92c-3.65,4.3-7.62,7.97-12.47,11.52l-.41,.3V60.27H41.01v84.93s.02,1.02,.02,1.02l-.42-.31c-4.64-3.36-8.88-7.24-12.6-11.54l-15.6,18.77Z"/>
            </g>
            <polygon class="cls-1" points="42.8 125.77 42.8 73.27 125.27 73.27 125.29 125.77 42.8 125.77"/>
            <path class="cls-5" d="M125.29,120.85c-.72,1.16-2.5,1.98-4.57,1.98s-3.88-.82-4.59-1.99h0c-.73,1.17-2.51,1.99-4.59,1.99s-3.85-.82-4.59-1.98h0c-.73,1.16-2.5,1.98-4.58,1.98s-3.85-.82-4.59-1.99h-.02c-.72,1.17-2.49,1.99-4.57,1.99s-3.85-.82-4.57-1.98h0c-.73,1.16-2.53,1.98-4.59,1.98s-3.86-.82-4.59-1.99h.01c-.74,1.17-2.51,1.99-4.58,1.99s-3.87-.82-4.6-1.98h0c-.73,1.16-2.51,1.98-4.59,1.98s-3.85-.82-4.58-1.99h-.02c-.72,1.17-2.5,1.99-4.57,1.99s-3.86-.82-4.6-1.98v.03c-.73,1.17-2.5,1.94-4.56,1.94s-3.87-.82-4.59-1.99v-.1l.03,23.2c0,2.35,1.48,4.36,3.57,5.14l37.68,14.63,37.66-14.63c2.09-.78,3.58-2.79,3.58-5.14v-23.19h0"/>
            <path class="cls-4" d="M125.29,118.43c-.72,1.15-2.5,1.98-4.57,1.98s-3.88-.83-4.59-1.98h0c-.73,1.15-2.51,1.98-4.59,1.98s-3.85-.83-4.59-1.98h0c-.73,1.15-2.5,1.98-4.58,1.98s-3.85-.83-4.59-1.98h-.02c-.72,1.15-2.49,1.98-4.57,1.98s-3.85-.83-4.57-1.98h0c-.73,1.15-2.53,1.98-4.59,1.98s-3.86-.83-4.59-1.98h.01c-.74,1.15-2.51,1.98-4.58,1.98s-3.87-.83-4.6-1.98h0c-.73,1.15-2.51,1.98-4.59,1.98s-3.85-.83-4.58-1.98h-.02c-.72,1.15-2.5,1.98-4.57,1.98s-3.86-.83-4.6-1.98v.04c-.73,1.16-2.5,1.94-4.56,1.94s-3.87-.83-4.59-1.98v-2.88c.72,1.16,2.49,2,4.59,2s3.83-.82,4.56-1.99h0c.73,1.16,2.5,1.99,4.6,1.99s3.85-.84,4.57-2h.02c.73,1.16,2.5,2,4.58,2s3.86-.82,4.59-1.99h0c.73,1.16,2.51,1.99,4.6,1.99s3.84-.84,4.58-2h-.01c.72,1.16,2.5,2,4.59,2s3.86-.82,4.59-1.99h0c.72,1.16,2.49,1.99,4.57,1.99s3.85-.84,4.57-2h.02c.73,1.16,2.5,2,4.59,2s3.85-.82,4.58-1.99h0c.73,1.16,2.5,1.99,4.59,1.99s3.86-.84,4.59-2h0c.71,1.16,2.5,2,4.59,2s3.85-.82,4.57-1.99v2.86Z"/>
            <path class="cls-4" d="M125.29,113.25c-.72,1.15-2.5,1.96-4.57,1.96s-3.88-.82-4.59-1.96h0c-.73,1.15-2.51,1.96-4.59,1.96s-3.85-.81-4.59-1.96h0c-.73,1.15-2.5,1.96-4.58,1.96s-3.85-.82-4.59-1.96h-.02c-.72,1.15-2.49,1.96-4.57,1.96s-3.85-.81-4.57-1.96h0c-.73,1.15-2.53,1.96-4.59,1.96s-3.86-.82-4.59-1.96h.01c-.74,1.15-2.51,1.96-4.58,1.96s-3.87-.81-4.6-1.96h0c-.73,1.15-2.51,1.96-4.59,1.96s-3.85-.82-4.58-1.96h-.02c-.72,1.15-2.5,1.96-4.57,1.96s-3.86-.81-4.6-1.96v.03c-.73,1.17-2.5,1.94-4.56,1.94s-3.87-.82-4.59-1.96v-2.87c.72,1.15,2.49,1.98,4.59,1.98s3.83-.81,4.56-1.98h0c.73,1.17,2.5,1.98,4.6,1.98s3.85-.83,4.57-1.98h.02c.73,1.15,2.5,1.98,4.58,1.98s3.86-.81,4.59-1.98h0c.73,1.17,2.51,1.98,4.6,1.98s3.84-.83,4.58-1.98h-.01c.72,1.15,2.5,1.98,4.59,1.98s3.86-.81,4.59-1.98h0c.72,1.17,2.49,1.98,4.57,1.98s3.85-.83,4.57-1.98h.02c.73,1.15,2.5,1.98,4.59,1.98s3.85-.81,4.58-1.98h0c.73,1.17,2.5,1.98,4.59,1.98s3.86-.83,4.59-1.98h0c.71,1.15,2.5,1.98,4.59,1.98s3.85-.81,4.57-1.98v2.87Z"/>
            <g>
              <path d="M90.09,147.27s4.04,6.33,1.92,4.54c-1.55-1.34-3.68-4.42-5.22-6.95l-8.3,3.22s-4.77,5.8-3.71,3.24c.76-1.85,3.11-4.86,5.05-7.13l-5.68-6.86s-6.99-2.73-4.22-2.52c1.81,.14,5.59,1.5,8.32,2.6l4.74-7.54s.44-7.5,1.11-4.8c.46,1.85,.31,5.86,.09,8.82l8.68,2.11s7.26-1.91,4.89-.45c-1.66,1.04-5.28,2.13-8.17,2.82l.5,8.89Z"/>
              <path d="M92.54,152.29c-.16,0-.38-.14-.63-.36-1.89-1.62-4.36-5.54-5.18-6.88l-8.14,3.16c-2.3,2.8-3.64,4.08-4,3.88-.2-.12-.13-.42,.04-.84,.82-2.01,3.44-5.25,4.99-7.07l-5.57-6.73c-3.36-1.31-5.02-2.18-4.93-2.59,.05-.23,.36-.25,.81-.22,2.13,.17,6.7,1.94,8.25,2.56l4.64-7.39c.22-3.61,.54-5.46,.96-5.49,.23,0,.36,.26,.46,.71,.52,2.1,.25,6.71,.1,8.74l8.51,2.07c3.49-.91,5.34-1.19,5.51-.8,.09,.21-.15,.42-.53,.65-2.04,1.28-6.55,2.44-8.09,2.81l.5,8.72c1.94,3.04,2.77,4.73,2.45,5.01-.05,.04-.1,.06-.16,.06Zm-5.68-7.63l.07,.11c.73,1.21,3.28,5.28,5.18,6.91,.19,.15,.3,.22,.36,.26-.06-.52-1.29-2.67-2.51-4.59l-.02-.04v-.04s-.51-9.02-.51-9.02l.13-.03c2.85-.68,6.48-1.77,8.12-2.8,.2-.12,.3-.2,.35-.25-.51-.09-2.94,.42-5.12,.99h-.04s-.04,0-.04,0l-8.81-2.15v-.13c.16-1.94,.45-6.67-.07-8.77-.06-.23-.1-.35-.13-.41-.25,.46-.53,2.92-.66,5.19v.04s-.02,.03-.02,.03l-4.81,7.65-.12-.05c-1.4-.57-6.13-2.42-8.27-2.59-.23-.02-.37-.01-.43,0,.37,.38,2.62,1.39,4.72,2.22l.06,.05,5.77,6.97-.09,.1c-1.52,1.78-4.2,5.07-5.02,7.08-.09,.21-.12,.34-.13,.41,.48-.24,2.14-2.06,3.57-3.81l.06-.05,8.42-3.27Z"/>
            </g>
            <g>
              <path class="cls-1" d="M83.48,145.6c.05,.12,.14,.21,.24,.21s.18-.09,.24-.21h0c.09-.21,.18-.71,.14-1.76,0,0,.05-3.54,2.7,.26,7.4,10.68-3.14,10.75-3.14,10.75h.1s-10.55-.06-3.13-10.75c2.64-3.8,2.68-.26,2.68-.26,0,1.05,.05,1.55,.17,1.78h0Z"/>
              <path d="M83.76,155h-.1c-.65-.02-4.15-.25-5.4-2.66-1.01-1.94-.26-4.75,2.24-8.34,.96-1.38,1.69-1.96,2.25-1.8,.69,.21,.72,1.48,.72,1.63,0,.94,.04,1.48,.15,1.71h0c.03,.08,.08,.11,.1,.11,0,0,.04,0,.1-.13,.06-.14,.16-.56,.12-1.68,0-.15,.04-1.42,.73-1.64,.56-.17,1.3,.42,2.26,1.8,2.49,3.59,3.24,6.4,2.23,8.34-1.25,2.41-4.75,2.64-5.4,2.66h0Zm-1.21-12.5c-.27,0-.81,.27-1.8,1.69-2.42,3.49-3.17,6.18-2.22,8.01,1.19,2.28,4.7,2.47,5.17,2.49,.47-.01,3.99-.2,5.17-2.49,.95-1.83,.21-4.52-2.21-8.01-1.13-1.62-1.67-1.74-1.9-1.67-.4,.12-.5,1.02-.51,1.33,.03,.88-.03,1.52-.16,1.82-.05,.09-.17,.31-.39,.31-.15,0-.3-.11-.38-.28h0c-.14-.27-.2-.83-.19-1.85,0-.3-.1-1.2-.5-1.33-.03,0-.06-.01-.1-.01Z"/>
            </g>
            <g>
              <path class="cls-1" d="M78.05,141.32c-.1,.09-.14,.19-.1,.28,.03,.1,.12,.17,.25,.17h0c.25,.02,.73-.03,1.73-.38,0,0,3.39-1.04,.6,2.63-7.88,10.35-11.18,.35-11.18,.35v.07s-3.18-10.05,9.26-6.3c4.44,1.33,1.07,2.48,1.07,2.48-1.02,.3-1.46,.52-1.63,.71h0Z"/>
              <path d="M74.02,148.87c-.21,0-.41-.02-.61-.05-2.71-.45-4-3.8-4.18-4.33h-.02c-.05-.16-1.22-3.96,.84-6.05,1.54-1.56,4.44-1.71,8.62-.45,1.61,.48,2.4,.99,2.41,1.57,.01,.72-1.2,1.16-1.34,1.2-.86,.25-1.39,.48-1.56,.66h0c-.06,.06-.07,.1-.06,.1,.02,.05,.06,.08,.11,.08v0c.22,.02,.7-.03,1.67-.37,.14-.04,1.38-.4,1.79,.19,.33,.47,0,1.35-1.01,2.68-2.41,3.16-4.64,4.76-6.64,4.76Zm-4.51-4.55s1.26,3.73,3.96,4.18c2.03,.35,4.37-1.2,6.94-4.58,1.19-1.56,1.14-2.11,1-2.31-.24-.34-1.13-.16-1.43-.07-.8,.28-1.39,.42-1.78,.39h0c-.19,0-.36-.12-.4-.29-.06-.13,0-.29,.14-.43,.23-.24,.75-.46,1.69-.74,.29-.1,1.12-.48,1.11-.89,0-.23-.29-.71-2.18-1.28-4.06-1.22-6.85-1.1-8.3,.37-1.78,1.8-.94,5.14-.79,5.66h.02Z"/>
            </g>
            <g>
              <path class="cls-1" d="M80.42,134.8c-.11-.06-.22-.06-.31,0-.08,.06-.1,.16-.08,.29h0c.05,.24,.25,.7,.92,1.52,0,0,2.03,2.9-2.34,1.37-12.26-4.28-3.78-10.52-3.78-10.52l-.06,.03s8.55-6.13,8.85,6.87c.1,4.63-2.03,1.78-2.03,1.78-.59-.86-.95-1.21-1.17-1.34h0Z"/>
              <path d="M80.59,138.59c-.49,0-1.16-.15-2.02-.45-4.12-1.44-6.38-3.26-6.7-5.43-.41-2.73,2.39-5,2.83-5.34h0c.14-.11,3.36-2.39,5.99-1.09,1.96,.98,3.01,3.69,3.11,8.07,.04,1.68-.21,2.59-.76,2.78-.68,.24-1.47-.78-1.56-.9-.61-.89-.95-1.2-1.12-1.3h0c-.05-.03-.11-.03-.13,0-.02,.01-.03,.06-.02,.12h0c.05,.22,.24,.65,.89,1.46,.09,.13,.8,1.18,.37,1.75-.16,.21-.44,.32-.86,.32Zm-5.66-11h0s-3.16,2.38-2.76,5.08c.31,2.03,2.49,3.77,6.5,5.17,1.87,.65,2.38,.43,2.52,.24,.25-.33-.19-1.12-.37-1.37-.55-.68-.87-1.21-.95-1.58h0c-.04-.19,.01-.35,.14-.45,.13-.09,.32-.1,.48,0h0c.3,.17,.7,.62,1.22,1.39,.18,.24,.8,.92,1.2,.78,.22-.08,.59-.5,.55-2.47-.1-4.25-1.08-6.87-2.93-7.79-2.27-1.13-5.17,.72-5.61,1.01Z"/>
            </g>
            <g>
              <path class="cls-1" d="M87.38,135.07c.03-.12,0-.24-.08-.3-.08-.04-.2-.03-.31,.03h0c-.21,.1-.57,.44-1.17,1.33,0,0-2.12,2.84-2.03-1.78,.3-13,8.86-6.86,8.86-6.86l-.06-.04s8.49,6.24-3.8,10.53c-4.35,1.53-2.31-1.37-2.31-1.37,.64-.84,.87-1.29,.91-1.53h0Z"/>
              <path d="M86.82,138.57c-.41,0-.69-.11-.85-.31-.43-.57,.29-1.63,.37-1.74,.68-.89,.86-1.29,.89-1.47h0c.02-.08,0-.14-.02-.15,0,0-.06,0-.15,.04-.14,.07-.47,.33-1.12,1.28-.09,.12-.87,1.13-1.55,.89-.55-.19-.8-1.1-.76-2.77,.1-4.37,1.14-7.08,3.1-8.06,2.46-1.23,5.46,.7,5.94,1.03l.04,.03s.02,.02,.03,.02h0c.46,.35,3.23,2.61,2.82,5.33-.33,2.16-2.59,3.99-6.72,5.43-.86,.3-1.53,.45-2.02,.45Zm.72-3.47c-.05,.32-.35,.83-.94,1.6-.17,.25-.62,1.04-.37,1.37,.14,.19,.65,.4,2.51-.25,4.01-1.4,6.21-3.14,6.51-5.18,.39-2.6-2.49-4.87-2.74-5.06-.4-.27-3.34-2.16-5.63-1.02-1.85,.92-2.83,3.54-2.93,7.79-.04,1.97,.33,2.39,.55,2.47,.42,.14,1.01-.53,1.19-.78,.52-.76,.94-1.23,1.23-1.37,.15-.08,.33-.1,.46-.03,.15,.11,.2,.29,.16,.47Z"/>
            </g>
            <g>
              <path class="cls-1" d="M89.27,141.77c.12,0,.23-.07,.26-.17,.04-.09-.02-.19-.12-.28h0c-.18-.18-.62-.42-1.63-.71,0,0-3.36-1.15,1.06-2.48,12.47-3.75,9.27,6.3,9.27,6.3l.02-.07s-3.31,9.99-11.19-.35c-2.81-3.67,.58-2.63,.58-2.63,1.01,.36,1.51,.4,1.74,.38h0Z"/>
              <path d="M93.47,148.87c-2,0-4.23-1.6-6.64-4.76-1.02-1.33-1.35-2.21-1.03-2.68,.41-.59,1.64-.23,1.78-.19,.86,.31,1.33,.38,1.57,.38h.12c.06,0,.11-.04,.11-.06,0-.02,0-.06-.07-.11-.15-.15-.54-.38-1.57-.67-.15-.05-1.35-.48-1.34-1.21,.01-.58,.8-1.09,2.4-1.57,4.19-1.26,7.09-1.11,8.63,.45,2.06,2.09,.88,5.89,.83,6.05h0c-.19,.54-1.48,3.88-4.19,4.33-.2,.03-.4,.05-.61,.05Zm-6.82-7.46c-.25,0-.48,.05-.59,.2-.13,.19-.18,.75,1.02,2.31,2.58,3.38,4.92,4.92,6.94,4.59,2.7-.45,3.96-4.15,3.97-4.18h0c.15-.53,1-3.85-.78-5.66-1.45-1.47-4.25-1.59-8.32-.37-1.88,.56-2.17,1.04-2.17,1.28,0,.42,.82,.8,1.11,.9,.88,.24,1.44,.49,1.69,.74,.22,.2,.19,.38,.14,.46-.03,.1-.12,.19-.24,.23v.02h-.15c-.25,.04-.78-.02-1.81-.38-.16-.05-.51-.13-.83-.13Z"/>
            </g>
            <path d="M76.49,129.79s-.79,.55-1.48,.77c-.69,.21-.98,.72-1.07,.85,0,0-.39,.9-.64,.53-.27-.36,.27-1.04,.27-1.04,.08-.14,.39-.64,1.06-.87,.69-.2,1.48-.74,1.48-.74,0,0,.77-.61,1.18-1.18,.43-.59,.99-.72,1.15-.74,0,0,.8-.29,1.08,.06,.26,.37-.71,.44-.71,.44-.16,.06-.74,.18-1.15,.75-.4,.59-1.17,1.17-1.17,1.17Z"/>
            <path d="M90.91,129.78s-.75-.59-1.16-1.17c-.41-.57-1-.7-1.13-.76,0,0-.99-.07-.72-.43,.27-.36,1.08-.06,1.08-.06,.16,.02,.74,.15,1.14,.74,.41,.57,1.18,1.19,1.18,1.19,0,0,.81,.54,1.48,.74,.67,.21,.97,.72,1.05,.84,0,0,.54,.7,.28,1.07-.26,.37-.64-.54-.64-.54-.1-.14-.39-.64-1.08-.85-.66-.22-1.49-.76-1.49-.76Z"/>
            <path d="M95.4,143.51s.34-.9,.76-1.49c.45-.55,.37-1.16,.36-1.3,0,0-.22-.96,.21-.81,.42,.14,.4,.99,.4,.99,0,.16,.07,.76-.35,1.33-.44,.56-.77,1.48-.77,1.48,0,0-.25,.94-.23,1.63,0,.71-.4,1.16-.49,1.29,0,0-.5,.7-.92,.58-.44-.14,.32-.78,.32-.78,.09-.13,.49-.58,.46-1.28,0-.71,.27-1.65,.27-1.65Z"/>
            <path d="M83.72,151.97s.98,.04,1.64,.27c.68,.22,1.21-.02,1.37-.07,0,0,.83-.51,.82-.05,0,.43-.82,.69-.82,.69-.16,.05-.69,.3-1.37,.06-.66-.23-1.64-.27-1.64-.27,0,0-.99,.05-1.65,.27-.67,.24-1.2-.01-1.37-.06,0,0-.83-.27-.83-.69,0-.46,.83,.05,.83,.05,.17,.06,.7,.29,1.37,.07,.66-.23,1.65-.27,1.65-.27Z"/>
            <path d="M72.07,143.51s.28,.94,.27,1.65c0,.72,.38,1.15,.49,1.28,0,0,.74,.64,.32,.78-.43,.12-.93-.58-.93-.58-.1-.14-.48-.58-.48-1.29,0-.7-.25-1.63-.25-1.63,0,0-.33-.92-.77-1.48-.41-.57-.36-1.17-.36-1.33,0,0,0-.85,.41-.99,.41-.15,.19,.81,.19,.81-.01,.14-.07,.75,.37,1.3,.42,.58,.74,1.49,.74,1.49Z"/>
            <g>
              <path class="cls-3" d="M83.66,137.31c-1.3,0-2.37,1.07-2.37,2.38s1.06,2.38,2.37,2.38,2.39-1.04,2.39-2.38-1.06-2.38-2.39-2.38Z"/>
              <path class="cls-2" d="M83.66,142.14c-1.36,0-2.43-1.07-2.43-2.45s1.09-2.44,2.43-2.44,2.46,1.1,2.46,2.44-1.08,2.45-2.46,2.45Zm0-4.76c-1.27,0-2.3,1.04-2.3,2.32s1.01,2.32,2.3,2.32,2.33-1.02,2.33-2.32-1.05-2.32-2.33-2.32Z"/>
            </g>
            <path d="M88.17,94.22l.32,6.42,5.43-3.52,1.71,2.78-6.4,3.71v1.33s7.44,4.18-1.63,4.02v.06c-3.18,2.64-6.19,.02-6.19,.02-9.07,.16-1.64-4-1.64-4v-1.35l-5.66-4.39,1.34-2.91,5.06,4.33,.29-6.41,7.36-.08Z"/>
            <g>
              <path class="cls-6" d="M94.93,99.72c5.26,6.02,9.12-.31,9.12-.31,6.64-1.62,2.7-6.32,2.7-6.32,6.92-4.54-1.21-8.1-1.21-8.1-.05-6.04-5.19-5.59-5.19-5.59-5.36-4.69-10.49,.52-10.49,.52-8.05-6.7-14.15,1.03-14.15,1.03,0,0-5.14-3.56-7.45,2.02,0,0-8.19-.23-5.13,8.04,0,0-6.33,6.33,1.93,9.45,0,0,4.39,8.13,10.43,.39,0,0,3.71,.22,3.12-5,0,0,4.7,1.95,9.15-.22,0,0,1.42,3.2,4.48,1.41,0,0-.48,2.06,2.48,2.48l.22,.22Z"/>
              <path d="M70.25,104.83c-.13,0-.26,0-.4-.02-2.87-.24-4.76-3.03-5.25-3.84-2.5-.99-3.96-2.4-4.35-4.18-.56-2.58,1.37-5.08,2.12-5.94-.88-2.58-.78-4.65,.3-6.15,1.42-1.98,4.09-2.32,5.14-2.37,.74-1.57,1.79-2.57,3.12-2.97,1.87-.55,3.75,.27,4.62,.75,.89-.96,3.31-3.17,6.71-3.53,2.55-.27,5.09,.57,7.55,2.49,1.41-1.17,5.99-4.29,10.74-.33h0c.68,0,2.39,.13,3.77,1.38,1.12,1.02,1.74,2.52,1.83,4.45,1.03,.53,3.8,2.15,4,4.51,.12,1.45-.72,2.85-2.52,4.17,.5,.8,1.23,2.3,.74,3.8-.45,1.37-1.78,2.35-3.94,2.93-.49,.7-2.13,2.77-4.57,2.98-1.85,.14-3.67-.78-5.43-2.78l-.06-.05c-1.12-.2-1.93-.65-2.41-1.34-.18-.26-.29-.52-.35-.76-.75,.25-1.47,.28-2.15,.05-.99-.32-1.65-1.08-2.01-1.62-3.3,1.38-6.59,.76-8.17,.31,.02,1.57-.36,2.78-1.15,3.61-.81,.86-1.83,1.06-2.36,1.1-1.8,2.23-3.67,3.35-5.55,3.35Zm-2.05-21.22c-.35,0-3.19,.06-4.46,1.84-.86,1.21-.86,3,0,5.32l.14,.39-.29,.3s-2.58,2.63-2.06,5.06c.3,1.38,1.56,2.49,3.75,3.32l.22,.09,.12,.21s1.75,3.17,4.34,3.38c1.6,.13,3.3-.9,5-3.08l.21-.27,.34,.02s1.01,.03,1.71-.72c.67-.72,.91-1.91,.73-3.56l-.12-1.09,1.02,.42s4.5,1.81,8.61-.2l.6-.29,.28,.61s.54,1.16,1.56,1.48c.59,.19,1.26,.06,2.01-.37l1.3-.76-.34,1.47s-.09,.46,.21,.88c.29,.41,.89,.69,1.73,.81l.21,.03,.41,.4c1.47,1.69,2.94,2.47,4.35,2.36,2.23-.19,3.7-2.56,3.72-2.59l.14-.23,.26-.06c1.85-.45,2.94-1.17,3.26-2.13,.48-1.45-.9-3.12-.91-3.14l-.47-.56,.61-.4c1.74-1.14,2.58-2.27,2.49-3.35-.14-1.72-2.65-3.19-3.61-3.61l-.38-.17v-.42c-.02-1.76-.49-3.07-1.42-3.91-1.3-1.18-3.06-1.04-3.07-1.04l-.28,.02-.21-.18c-4.82-4.22-9.41,.29-9.6,.49l-.42,.42-.46-.38c-2.32-1.93-4.67-2.79-7.01-2.54-3.72,.38-6.19,3.44-6.22,3.47l-.38,.47-.5-.34s-2.13-1.43-4.02-.87c-1.04,.31-1.87,1.19-2.46,2.61l-.17,.41h-.45s-.01-.01-.04-.01Z"/>
            </g>
            <path class="cls-3" d="M24.54,151.54l.39,.33c-1.35,2.44-1.54,4.17-.6,4.97,.68,.59,1.58,.35,2.39-.57,.35-.4,.58-.86,.58-1.21,0-.51-.38-1.08-.8-1.95-.81-1.65-.77-2.98,.67-4.65,1.44-1.65,3.33-2.2,4.53-1.17,.52,.46,.79,1.11,.84,1.96l.93-.29,.33,.29-2.88,3.5-.34-.33c1.13-2.34,1.37-3.74,.52-4.45-.65-.59-1.49-.38-2.24,.48-.94,1.08-.4,1.71,.32,3.04,.37,.74,.67,1.32,.52,2.2-.14,.78-.62,1.69-1.37,2.58-1.57,1.79-3.36,2.32-4.63,1.22-.63-.56-.92-1.22-.88-2.24l-1.14,.38-.33-.29,3.2-3.8Z"/>
            <path class="cls-3" d="M35.33,152.74c1.31-.62,2.4-.59,3.37,.07,.98,.69,1.39,1.68,1.25,3.19-.11,1.33-.73,2.84-1.78,4.35-1.05,1.5-2.06,2.47-3.36,3.08-1.39,.64-2.57,.65-3.5,0-.95-.66-1.34-1.68-1.21-3.23,.12-1.47,.67-2.77,1.73-4.28,1.06-1.52,2.27-2.61,3.49-3.18Zm-3.49,9.91c1.02,.7,2.54-.46,4.66-3.49,2.12-3.05,2.68-4.86,1.65-5.59-1.01-.69-2.52,.46-4.64,3.51-2.11,3.03-2.7,4.85-1.67,5.56Z"/>
            <path class="cls-3" d="M45.95,158.65l-.45-.24c-.4-.21-.56-.05-.88,.55l-2.94,5.49c-1.06,1.97-1.1,3.15,.04,3.74,.51,.27,1.05,.24,1.52,0,.75-.42,1.26-1.27,1.98-2.63l2.12-3.97c.61-1.15,.73-1.81-.04-2.21,0-.01-.05-.03-.06-.03l.41-.79,2.49,1.34-.42,.78c-.78-.28-1.19,.12-1.8,1.25l-2.18,4.08c-.63,1.19-1.13,2.07-1.86,2.7-1.09,.92-2.15,1.04-3.31,.39-1.79-.94-2.01-2.65-.75-5.07l3.17-5.92c.32-.62,.35-.84-.04-1.05l-.45-.24,.41-.79,3.45,1.84-.42,.79Z"/>
            <path class="cls-3" d="M55.53,162.92c-.35-.13-.53,.02-.78,.63l-3.26,8.25c-.27,.63-.27,.85,.14,1.02l.49,.2-.33,.84-3.62-1.43,.33-.85,.48,.19c.41,.17,.54,0,.81-.64l3.28-8.24c.24-.62,.24-.84-.1-.97-.75-.32-1.87,.73-2.95,2.94l-.49-.17,1.87-4.27,6.28,2.49-1.57,4.37-.46-.17c.73-2.36,.64-3.9-.11-4.19Z"/>
            <path class="cls-3" d="M60.93,175.77c.41,.13,.54-.06,.72-.72l1.05-3.89-2.62-.71-1.04,3.88c-.19,.66-.16,.87,.26,.99l.51,.15-.25,.86-3.76-1.01,.24-.87,.5,.12c.42,.13,.55-.05,.72-.71l2.28-8.44c.19-.67,.18-.91-.26-1.03l-.5-.13,.24-.86,3.75,1.02-.23,.86-.5-.14c-.42-.13-.55,.08-.74,.74l-.93,3.5,2.63,.7,.93-3.51c.19-.65,.17-.9-.26-1.01l-.49-.13,.22-.86,3.77,1.03-.22,.85-.52-.14c-.42-.11-.54,.09-.73,.75l-2.27,8.44c-.19,.67-.17,.88,.27,.99l.49,.15-.22,.85-3.79-1.01,.26-.88,.5,.14Z"/>
            <path class="cls-3" d="M70.89,177.78l.52,.03c.22,.01,.3-.1,.34-.35,.01-.13,.01-.28,0-.49l-.18-1.97-2.59-.38-.37,.86c-.12,.28-.21,.61-.23,.84-.12,.77,.16,1.05,.9,1.22l-.13,.87-2.88-.43,.13-.88c.65-.07,1.08-.77,1.63-2.07l3.75-8.9,.76,.12,1.21,11.2c.06,.53,.19,.74,.57,.81l-.13,.89-3.41-.5,.12-.89Zm-1.49-4.17l2.07,.32-.41-4.26-1.67,3.94Z"/>
            <path class="cls-3" d="M78.46,176.39c-.05,1.59,.15,2.17,1.11,2.22l-.02,.91-2.95-.09v-.91c.93-.04,1.11-.62,1.15-2.16l.18-7.42c.02-.65-.05-.91-.49-.94h-.54s.04-.9,.04-.9l3.31,.09,1.43,7.41,1.68-7.34,3.26,.08-.03,.9-.51-.03c-.43,0-.52,.21-.53,.89l-.21,8.75c-.02,.69,.05,.9,.49,.9h.53s-.02,.91-.02,.91l-3.83-.09,.03-.9h.44c.43,.01,.53-.19,.55-.87l.23-9.24-2.51,10.98h-.5s-2.1-11.03-2.1-11.03l-.18,7.87Z"/>
            <path class="cls-3" d="M92.37,178.28l.65-.06,.09,.89-4.04,.41-.09-.91,.55-.05c.44-.05,.49-.25,.43-.94l-.84-8.69c-.05-.68-.15-.89-.59-.86l-.55,.06-.1-.89,4.48-.43c1.87-.19,2.94,.93,3.15,3.21,.24,2.43-.77,3.64-3.05,3.87-.31,.04-.64,.05-1.03,.07l.35,3.5c.07,.71,.17,.86,.58,.83Zm-1-5.28c.12,.03,.28,.03,.5,0,1.39-.13,1.89-.74,1.69-2.78-.18-1.98-.71-2.57-1.92-2.46-.66,.07-.76,.2-.69,1.15l.41,4.09Z"/>
            <path class="cls-3" d="M101.47,166.13c-.36,.07-.4,.28-.26,.93l1.78,8.7c.14,.67,.26,.84,.69,.75l.5-.1,.17,.89-3.8,.78-.19-.88,.5-.11c.44-.08,.46-.31,.34-.98l-1.8-8.69c-.14-.64-.26-.84-.62-.76-.8,.17-1.16,1.66-.85,4.11l-.49,.09-.78-4.57,6.6-1.38,1.12,4.52-.49,.1c-.7-2.35-1.61-3.6-2.42-3.42Z"/>
            <path class="cls-3" d="M106.29,165.7c.3-1.4,.98-2.28,2.11-2.63,1.14-.38,2.19-.1,3.31,.91,1,.9,1.81,2.31,2.39,4.04,.58,1.74,.71,3.14,.43,4.55-.31,1.5-1.03,2.44-2.12,2.79-1.1,.36-2.14,.05-3.29-.99-1.09-.97-1.8-2.19-2.36-3.94-.58-1.76-.72-3.39-.45-4.72Zm5.82,8.76c1.18-.37,1.18-2.29,.03-5.8-1.15-3.53-2.25-5.08-3.45-4.69-1.16,.38-1.16,2.28-.01,5.81,1.16,3.52,2.27,5.08,3.44,4.68Z"/>
            <path class="cls-3" d="M118.31,172.03c.78-.51,.68-1.09,.05-2.45l-3.13-6.73-.32-.23c-.32-.24-.56-.4-.94-.22l-.12,.05-.38-.8,2.35-1.09,6.78,5.32-1.95-4.18c-.7-1.5-1.1-1.88-2.03-1.46l-.37-.83,2.72-1.26,.38,.81c-.76,.43-.7,.99-.04,2.43l3.98,8.55-.59,.28-8.39-6.62,2.63,5.7c.66,1.44,1.12,1.85,2.01,1.49l.39,.81-2.67,1.25-.38-.81Z"/>
            <path class="cls-3" d="M133.78,155.28l-.41,.29c-1.81-1.95-2.9-2.29-4.19-1.41-.49,.34-.59,.48-.1,1.2l2.05,3.01s.1-.05,.13-.08c.76-.52,.68-1.28-.14-2.79l.41-.29,3.2,4.68-.42,.3c-1.09-1.34-1.77-1.64-2.52-1.15-.04,.03-.08,.06-.12,.09l2.31,3.4c.39,.57,.56,.69,.92,.45l.61-.42,.51,.75-3.4,2.32-.5-.75,.43-.3c.38-.23,.31-.46-.06-1.02l-4.94-7.23c-.38-.57-.58-.7-.93-.45l-.44,.29-.5-.73,5.53-3.78,2.58,3.62Z"/>
            <path class="cls-3" d="M143.71,157.8c-.67,.57-1.53,.75-2.53,.57-1.53-.3-3.1-1.37-4.55-3.07-1.13-1.31-1.86-2.7-2.16-4.03-.34-1.49-.03-2.58,.88-3.36,.57-.49,1.22-.66,2.08-.51l-.15-1.04,.33-.29,3.35,3.68-.36,.4c-2.17-1.86-3.72-2.41-4.58-1.68-1.03,.9-.34,2.57,2.1,5.41,2.45,2.88,3.95,3.79,5.1,2.81,.86-.75,.68-2.21-.6-4.32l.62-.12c1.64,2.47,1.79,4.42,.46,5.55Z"/>
            <g>
              <path class="cls-1" d="M12.06,54.04l1.95,4.04-5.49,1.5,1.71,3.41,5.5-1.5,1.72,3.42-5.5,1.49,1.7,3.4,5.51-1.49,1.74,3.42-5.55,1.48,1.73,3.4,5.53-1.47,2.46,4.74c1.04-.29,2.06-.65,3.04-1.06l-12.86-25.68c-.93,.4-1.99,.71-3.19,.91Z"/>
              <path class="cls-1" d="M27.15,55.46c-.38-1.82,3.76-4,7.08-6.67l-4.4-8.81c-1.74,.95-3.67,2.44-5.6,4.61-.52,.53-.97,1.09-1.41,1.65l4.33,9.22Z"/>
            </g>
            <g>
              <path class="cls-5" d="M37.02,39.8c-1.07-1.45-3.81-1.65-7.18,.18l4.4,8.81c3.05-2.49,5.41-5.44,2.79-8.99Z"/>
              <path class="cls-5" d="M15.25,53.13l12.86,25.68c3.61-1.5,6.58-3.61,7.58-5.17l-5.54-11.78-2.75-5.85c-.15-.19-.22-.35-.26-.54l-4.33-9.22c-2.16,2.69-4.04,5.38-7.58,6.89Z"/>
              <path class="cls-5" d="M12.06,54.04c-1.74,.3-3.75,.37-6.22,.17l2.68,5.37,5.49-1.5-1.95-4.04Z"/>
              <polygon class="cls-5" points="15.73 61.49 10.24 62.99 11.95 66.4 17.45 64.9 15.73 61.49"/>
              <polygon class="cls-5" points="19.16 68.31 13.65 69.79 15.35 73.2 20.9 71.72 19.16 68.31"/>
              <path class="cls-5" d="M17.07,76.6l2.01,4.05c1.94,.11,3.99-.21,5.99-.78l-2.46-4.74-5.53,1.47Z"/>
            </g>
            <path class="cls-1" d="M34.16,48.85l2.44,4.88c1.74-1.46,3.59-3.2,5.57-4.85l-4.58-8.17c1.65,3.18-.6,5.85-3.43,8.15Z"/>
            <path class="cls-5" d="M27.41,56c.12,.19,.31,.35,.56,.52,2.46,1.74,5.35-.03,8.63-2.79l-2.44-4.88c-3.64,2.93-8.25,5.23-6.75,7.15Z"/>
            <path d="M19.8,81.18c-.25,0-.5,0-.74-.02l-.3-.02L4.96,53.61l.92,.08c9.69,.82,12.56-2.75,15.84-6.89,.67-.84,1.36-1.72,2.13-2.56,3.58-3.98,7.65-6.26,10.72-6.1,1.26,.06,2.27,.54,2.87,1.35,1,1.36,1.39,2.75,1.17,4.13-.49,3.12-3.92,5.57-6.95,7.74-1.9,1.36-3.87,2.77-4.01,3.76-.03,.21,.02,.38,.17,.57l.06,.1,8.4,17.87-.15,.24c-1.9,3-9.79,7.29-16.33,7.29Zm-.39-1.04c.14,0,.28,0,.42,0,6.27,0,13.44-4.1,15.27-6.58l-8.13-17.3c-.3-.4-.41-.84-.34-1.31,.21-1.42,2.07-2.76,4.44-4.45,2.86-2.05,6.1-4.36,6.53-7.06,.18-1.11-.14-2.21-.98-3.35-.41-.56-1.13-.89-2.08-.93-2.22-.1-5.93,1.35-9.9,5.76-.74,.82-1.42,1.68-2.08,2.51-3.23,4.06-6.25,7.92-15.83,7.35l12.7,25.35Z"/>
            <path d="M30.1,57.74c-.84,0-1.65-.24-2.43-.8-.31-.21-.53-.41-.69-.65-.3-.38-.43-.84-.36-1.33,.21-1.42,2.07-2.76,4.44-4.45,3.77-2.7,8.05-5.76,6.07-9.57l.91-.49,4.79,8.55-.33,.28c-1,.84-1.97,1.71-2.92,2.55-3.51,3.12-6.65,5.91-9.48,5.91Zm8.53-14.12c-.49,3.1-4,5.61-6.97,7.74-1.9,1.36-3.87,2.77-4.01,3.76-.03,.2,.02,.38,.17,.57,.1,.15,.23,.27,.44,.4,2.78,1.96,6.42-1.29,10.63-5.04,.85-.75,1.72-1.53,2.61-2.29l-2.88-5.14Z"/>
            <g>
              <path class="cls-1" d="M154.31,54.04l-1.96,4.04,5.47,1.5-1.69,3.41-5.51-1.5-1.71,3.42,5.5,1.49-1.69,3.4-5.52-1.49-1.73,3.42,5.53,1.48-1.72,3.4-5.53-1.47-2.46,4.74c-1.04-.29-2.07-.65-3.05-1.06l12.87-25.68c.94,.4,1.97,.71,3.19,.91Z"/>
              <path class="cls-1" d="M139.2,55.46c.38-1.82-3.76-4-7.08-6.67l4.4-8.81c1.74,.95,3.66,2.44,5.62,4.61,.49,.53,.94,1.09,1.39,1.65l-4.33,9.22Z"/>
            </g>
            <g>
              <path class="cls-5" d="M129.33,39.8c1.07-1.45,3.82-1.65,7.19,.18l-4.4,8.81c-3.05-2.49-5.4-5.44-2.79-8.99Z"/>
              <path class="cls-5" d="M151.12,53.13l-12.87,25.68c-3.59-1.5-6.57-3.61-7.58-5.17l5.54-11.78,2.75-5.85c.15-.19,.22-.35,.25-.54l4.33-9.22c2.18,2.69,4.03,5.38,7.58,6.89Z"/>
              <path class="cls-5" d="M154.31,54.04c1.72,.3,3.75,.37,6.22,.17l-2.71,5.37-5.47-1.5,1.96-4.04Z"/>
              <polygon class="cls-5" points="150.62 61.49 156.12 62.99 154.41 66.4 148.91 64.9 150.62 61.49"/>
              <polygon class="cls-5" points="147.2 68.31 152.72 69.79 151 73.2 145.48 71.72 147.2 68.31"/>
              <path class="cls-5" d="M149.29,76.6l-2.02,4.05c-1.93,.11-3.99-.21-5.98-.78l2.46-4.74,5.53,1.47Z"/>
            </g>
            <path class="cls-1" d="M132.2,48.85l-2.44,4.88c-1.73-1.46-3.59-3.2-5.55-4.85l4.56-8.17c-1.65,3.18,.61,5.85,3.43,8.15Z"/>
            <path class="cls-5" d="M138.95,56c-.14,.19-.33,.35-.55,.52-2.48,1.74-5.35-.03-8.65-2.79l2.44-4.88c3.64,2.93,8.24,5.23,6.75,7.15Z"/>
            <path d="M146.56,81.18c-6.52,0-14.43-4.28-16.34-7.28l-.15-.24,.12-.26,8.36-17.71c.15-.19,.2-.37,.17-.57-.14-.99-2.11-2.39-4.01-3.76-3.03-2.16-6.45-4.62-6.95-7.74-.22-1.38,.17-2.77,1.17-4.13,.6-.81,1.62-1.29,2.88-1.35,3.1-.18,7.15,2.13,10.73,6.11,.76,.84,1.44,1.7,2.11,2.54,3.28,4.15,6.12,7.73,15.85,6.91l.92-.08-13.81,27.53-.3,.02c-.24,.01-.49,.02-.74,.02Zm-15.31-7.61c1.89,2.53,9.32,6.76,15.7,6.57l12.71-25.35c-9.55,.57-12.61-3.29-15.83-7.36-.65-.83-1.33-1.68-2.06-2.49-3.28-3.63-6.86-5.77-9.65-5.77-.09,0-.17,0-.26,0-.96,.05-1.68,.37-2.1,.93-.84,1.14-1.16,2.24-.98,3.35,.43,2.69,3.67,5.01,6.53,7.06,2.36,1.69,4.23,3.03,4.44,4.45,.07,.47-.05,.91-.34,1.31l-8.15,17.3Z"/>
            <path d="M136.26,57.73c-2.84,0-5.98-2.8-9.49-5.92-.94-.84-1.9-1.7-2.9-2.53l-.33-.28,4.77-8.55,.91,.49c-1.98,3.81,2.3,6.87,6.07,9.57,2.36,1.69,4.23,3.03,4.44,4.45,.07,.49-.06,.94-.38,1.36-.18,.25-.44,.46-.65,.61-.79,.55-1.6,.8-2.45,.8Zm-11.4-8.97c.89,.76,1.75,1.53,2.59,2.28,4.22,3.76,7.86,7.01,10.64,5.06,.21-.15,.35-.28,.43-.4,.16-.2,.21-.38,.18-.58-.14-.99-2.11-2.4-4.01-3.76-2.96-2.12-6.47-4.63-6.96-7.73l-2.87,5.14Z"/>
            <path class="cls-1" d="M99.73,48c-1.19,.95-3.25,2.33-5.54,3.73v18.28c2.58-1.57,5.21-3.25,7.69-4.59v-18.96c-.86,.57-1.61,1.09-2.16,1.53Z"/>
            <path class="cls-1" d="M112.06,43.03c-.11,0-.21,.03-.32,.03l-2.61,19.76c.1,0,.21-.03,.32-.03,2.14,0,4.13,.72,6,1.78l5.85-17.95c-2.87-2.05-5.95-3.58-9.24-3.58Z"/>
            <path class="cls-1" d="M138.4,56.52c-2.45,1.72-5.32,0-8.56-2.71l-7.62,15.9c3.1,2.68,5.85,4.89,8.43,3.92l8.3-17.62c-.14,.19-.33,.35-.55,.52Z"/>
            <path class="cls-1" d="M27.97,56.52c-.25-.17-.44-.33-.56-.52l8.28,17.62c2.61,.98,5.35-1.23,8.45-3.92l-7.63-15.9c-3.25,2.71-6.1,4.43-8.54,2.71Z"/>
            <path class="cls-1" d="M83.18,56.47c-.76,0-1.78-.26-2.93-.67v18.4c1.06,.37,2.04,.6,2.93,.6s1.86-.22,2.91-.6v-18.4c-1.13,.41-2.16,.67-2.91,.67Z"/>
            <path class="cls-1" d="M54.3,43.03c-3.28,0-6.36,1.53-9.22,3.58l5.86,17.95c1.86-1.06,3.84-1.78,5.99-1.78,.1,0,.21,.03,.31,.03l-2.61-19.76c-.11,0-.21-.03-.33-.03Z"/>
            <path class="cls-1" d="M66.63,48c-.55-.44-1.28-.97-2.15-1.53v18.96c2.49,1.34,5.12,3.02,7.69,4.59v-18.28c-2.3-1.4-4.36-2.78-5.54-3.73Z"/>
            <path class="cls-5" d="M72.16,51.72v18.28c2.88,1.76,5.69,3.37,8.09,4.19v-18.4c-2.4-.86-5.42-2.46-8.09-4.08Z"/>
            <path class="cls-5" d="M54.62,43.06l2.61,19.76c2.04,.1,4.54,1.15,7.25,2.6v-18.96c-2.48-1.57-6.05-3.3-9.85-3.41Z"/>
            <path class="cls-5" d="M36.51,53.8l7.63,15.9c2.08-1.79,4.31-3.77,6.79-5.14l-5.86-17.95c-3.1,2.21-5.96,5.02-8.56,7.19Z"/>
            <path class="cls-5" d="M86.09,55.8v18.4c2.41-.82,5.21-2.43,8.1-4.19v-18.28c-2.67,1.62-5.68,3.22-8.1,4.08Z"/>
            <path class="cls-5" d="M101.89,46.46v18.96c2.7-1.46,5.2-2.51,7.23-2.6l2.61-19.76c-3.8,.11-7.36,1.84-9.84,3.41Z"/>
            <path class="cls-5" d="M121.3,46.61l-5.85,17.95c2.46,1.38,4.7,3.35,6.78,5.14l7.62-15.9c-2.59-2.18-5.44-4.99-8.54-7.19Z"/>
            <path d="M83.18,75.31c-3.41,0-8.11-2.9-13.09-5.97-4.82-2.97-9.8-6.04-13.17-6.04-4.58,0-8.5,3.39-11.96,6.38-3.45,2.98-6.44,5.56-9.45,4.42l-.2-.07-8.37-17.81,.9-.51c.08,.12,.21,.24,.42,.37,2.76,1.95,6.41-1.28,10.61-5.03,4.5-4.01,9.59-8.55,15.43-8.55,5.32,0,10.21,3.18,12.65,5.07,3.12,2.49,12.71,8.37,16.23,8.37s13.01-5.81,16.23-8.37c2.45-1.9,7.34-5.08,12.65-5.08,5.85,0,10.95,4.54,15.45,8.55,4.2,3.75,7.83,6.98,10.6,5.03,.21-.16,.35-.28,.43-.4l.89,.53-8.39,17.81-.2,.07c-3.02,1.14-5.99-1.44-9.43-4.42-3.46-2.99-7.38-6.38-11.96-6.38-3.37,0-8.35,3.07-13.17,6.04-4.98,3.07-9.68,5.97-13.1,5.97Zm-26.26-13.05c3.67,0,8.77,3.15,13.71,6.2,4.64,2.86,9.43,5.81,12.55,5.81s7.91-2.96,12.55-5.82c4.94-3.05,10.04-6.19,13.71-6.19,4.97,0,9.04,3.53,12.64,6.64,3.11,2.69,5.79,5.02,8.19,4.3l7.4-15.72c-3.19,1.2-6.78-2-10.87-5.64-4.36-3.89-9.3-8.29-14.76-8.29-5,0-9.67,3.04-12.01,4.86-3.13,2.49-12.92,8.59-16.87,8.59s-13.75-6.1-16.88-8.59c-1.88-1.46-6.81-4.85-12.01-4.85s-10.38,4.4-14.74,8.28c-4.1,3.65-7.68,6.85-10.88,5.65l7.39,15.72c2.39,.73,5.1-1.61,8.21-4.3,3.6-3.11,7.67-6.63,12.64-6.63Z"/>
            <g>
              <path d="M83.47,38.49c17.1,0,30.95-7.51,30.95-16.76s-13.86-16.77-30.95-16.77-30.97,7.51-30.97,16.77,13.87,16.76,30.97,16.76Z"/>
              <path class="cls-1" d="M83.47,38.75c-17.22,0-31.23-7.64-31.23-17.02s14.01-17.03,31.23-17.03,31.22,7.64,31.22,17.03-14,17.02-31.22,17.02Zm0-33.54c-16.93,0-30.71,7.41-30.71,16.51s13.77,16.5,30.71,16.5,30.69-7.4,30.69-16.5-13.77-16.51-30.69-16.51Z"/>
            </g>
            <path class="cls-3" d="M83.5,35.77c15.19,0,27.52-6.29,27.52-14.04s-12.33-14.04-27.52-14.04-27.52,6.28-27.52,14.04,12.3,14.04,27.52,14.04Z"/>
            <g>
              <path class="cls-1" d="M83.52,32.4c12.37,0,22.42-4.02,22.42-8.97s-10.05-8.95-22.42-8.95-22.41,4.01-22.41,8.95,10.04,8.97,22.41,8.97Z"/>
              <path d="M83.52,33.44c-13.15,0-23.45-4.4-23.45-10.01s10.3-9.99,23.45-9.99,23.45,4.39,23.45,9.99-10.3,10.01-23.45,10.01Zm0-17.92c-12.6,0-21.37,4.17-21.37,7.91s8.78,7.93,21.37,7.93,21.38-4.18,21.38-7.93-8.78-7.91-21.38-7.91Z"/>
            </g>
            <g>
              <path class="cls-1" d="M83.45,17.06c-11.92,0-21.56,9.67-21.56,21.57s9.64,21.57,21.56,21.57h-.27c11.9,0,21.56-9.65,21.56-21.57s-9.66-21.57-21.56-21.57h.27Z"/>
              <path d="M83.45,60.72h-.27c-12.05-.14-21.81-10-21.81-22.09s9.76-21.94,21.81-22.09h0s.27,0,.27,0c12.05,.14,21.81,10,21.81,22.09s-9.76,21.94-21.81,22.09h0Zm-.13-43.14c-11.54,.07-20.91,9.49-20.91,21.05s9.37,20.98,20.91,21.05c11.54-.07,20.91-9.49,20.91-21.05s-9.37-20.98-20.91-21.05Z"/>
            </g>
            <path d="M79.86,56.46l-4.44-7.54-8.13-1.33-2.04,2.58c.1,.13,.14,.27,.24,.39l.35,.51c2.72,3.84,6.64,6.75,11.25,8.17l.83,.16,1.93-2.94Z"/>
            <polygon points="74.31 35.65 77.79 46.4 83.31 46.4 88.83 46.4 92.31 35.65 83.3 29.12 74.31 35.65"/>
            <path d="M83.3,24.76h0s6.71-4.4,6.71-4.4v-2.17c-2.1-.71-4.35-1.11-6.7-1.12-2.33,.02-4.58,.42-6.7,1.12v2.17l6.69,4.4Z"/>
            <path d="M70.87,32.23l.24-8.56-1.74-1.35c-.92,.78-1.77,1.63-2.52,2.56l-.09,.09c-2.45,3-4.09,6.68-4.65,10.71l1.92,.85,6.85-4.29Z"/>
            <path d="M91.22,48.93l-4.44,7.54,1.92,2.94,.8-.15c4.67-1.43,8.69-4.43,11.41-8.36l.18-.26c.1-.15,.19-.32,.28-.45l-2.05-2.58-8.1,1.33Z"/>
            <path d="M95.76,32.23l6.83,4.29,1.92-.85c-.56-4.05-2.21-7.74-4.69-10.75h-.02c-.76-.95-1.64-1.81-2.55-2.6l-1.74,1.35,.24,8.56Z"/>
          </g>
        </g>
      </g>
    </g>
  </g>
</svg>